<svg width="45" height="43" viewBox="0 0 45 43" fill="none" xmlns="http://www.w3.org/2000/svg">
<path d="M44.6789 18.4313C44.6789 8.46892 34.6917 0.363831 22.4154 0.363831C10.1398 0.363831 0.151611 8.46892 0.151611 18.4313C0.151611 27.3623 8.07202 34.8422 18.7712 36.256C19.4959 36.4127 20.483 36.7343 20.7324 37.3541C20.9569 37.9167 20.8793 38.7985 20.8046 39.367C20.8046 39.367 20.5433 40.9381 20.4865 41.2731C20.3895 41.8354 20.0391 43.4744 22.4154 42.4734C24.7914 41.4719 35.2366 34.9234 39.9077 29.5476H39.9066C43.133 26.009 44.6789 22.4181 44.6789 18.4313Z" fill="#FEFEFE"/>
<path d="M37.2707 24.1835H31.0158C30.781 24.1835 30.5907 23.9934 30.5907 23.7584V14.0421C30.5907 13.8074 30.781 13.6171 31.0158 13.6171H37.2707C37.5044 13.6171 37.6958 13.8082 37.6958 14.0421V15.621C37.6958 15.8558 37.5055 16.0461 37.2707 16.0461H33.0199V17.6857H37.2707C37.5044 17.6857 37.6958 17.877 37.6958 18.1108V19.6898C37.6958 19.9246 37.5055 20.1149 37.2707 20.1149H33.0199V21.7545H37.2707C37.5044 21.7545 37.6958 21.9457 37.6958 22.1794V23.7584C37.6958 23.9934 37.5055 24.1835 37.2707 24.1835Z" fill="#06C755"/>
<path d="M14.1342 24.1835C14.369 24.1835 14.5593 23.9934 14.5593 23.7584V22.1794C14.5593 21.9457 14.368 21.7545 14.1342 21.7545H9.88325V14.0421C9.88325 13.8082 9.6921 13.6171 9.45838 13.6171H7.8793C7.64454 13.6171 7.45422 13.8074 7.45422 14.0421V23.7584C7.45422 23.9934 7.64454 24.1835 7.8793 24.1835H14.1342Z" fill="#06C755"/>
<path d="M17.8997 13.6171H16.321C16.0863 13.6171 15.8958 13.8076 15.8958 14.0421V23.7587C15.8958 23.9934 16.0863 24.1837 16.321 24.1837H17.8997C18.1347 24.1837 18.3248 23.9934 18.3248 23.7587V14.0421C18.3248 13.8076 18.1347 13.6171 17.8997 13.6171Z" fill="#06C755"/>
<path d="M28.6486 13.6171H27.0697C26.8349 13.6171 26.6446 13.8076 26.6446 14.0421V19.8132L22.1991 13.8097C22.1887 13.7942 22.177 13.7796 22.1649 13.7659C22.1641 13.7648 22.1632 13.7638 22.1622 13.7627C22.1541 13.7535 22.1455 13.7446 22.1365 13.7362L22.1286 13.7289C22.1211 13.7222 22.1136 13.7158 22.1056 13.7093L22.094 13.7007C22.0869 13.6955 22.0793 13.6905 22.0714 13.6853C22.0672 13.6826 22.0629 13.6801 22.0585 13.6776C22.0508 13.673 22.043 13.6686 22.0351 13.6646C22.0305 13.6623 22.0261 13.6601 22.0215 13.658C22.0134 13.6542 22.0051 13.6507 21.9967 13.6473C21.9921 13.6457 21.9875 13.644 21.9829 13.6423C21.9744 13.6392 21.9658 13.6365 21.9571 13.634C21.952 13.6325 21.947 13.6313 21.9418 13.63C21.9335 13.6281 21.9251 13.6262 21.9166 13.6246C21.9107 13.6235 21.9047 13.6227 21.8986 13.6217C21.8909 13.6208 21.8834 13.6198 21.8757 13.6192C21.8682 13.6183 21.8606 13.6181 21.8531 13.6179C21.8481 13.6177 21.8433 13.6171 21.8383 13.6171H20.2682C20.0335 13.6171 19.8431 13.8076 19.8431 14.0421V23.7587C19.8431 23.9934 20.0335 24.1837 20.2682 24.1837H21.8471C22.0818 24.1837 22.2722 23.9934 22.2722 23.7587V17.9895L26.7233 24.0005C26.754 24.0439 26.7915 24.0794 26.8331 24.1076C26.8347 24.1086 26.8362 24.1099 26.8379 24.1109C26.8464 24.1167 26.8556 24.1222 26.8646 24.1272C26.8687 24.1295 26.8727 24.132 26.8771 24.1339C26.8838 24.1376 26.8904 24.141 26.8975 24.1439C26.9046 24.1472 26.9113 24.1501 26.9184 24.1529C26.9228 24.1547 26.9274 24.1564 26.9318 24.1579C26.9414 24.1612 26.9512 24.1645 26.9612 24.1672C26.9633 24.1679 26.9654 24.1685 26.9672 24.1687C27.0027 24.1781 27.0399 24.1837 27.0785 24.1837H28.6486C28.8833 24.1837 29.0736 23.9934 29.0736 23.7587V14.0421C29.0736 13.8076 28.8833 13.6171 28.6486 13.6171Z" fill="#06C755"/>
</svg>
