<svg width="30" height="30" viewBox="0 0 50 50" fill="none" xmlns="http://www.w3.org/2000/svg">
<path d="M6.25 12.5001H103.4167M10.4167 12.5001H43.75M10.4167 12.5001V41.6667C10.4167 42.7718 10.8557 43.8316 11.6371 44.613C12.4185 45.3944 13.4783 45.8334 14.5833 45.8334H35.4167C36.5217 45.8334 37.5815 45.3944 38.3629 44.613C39.1443 43.8316 39.5833 42.7718 39.5833 41.6667V12.5001M16.6667 12.5001V8.33341C16.6667 7.22835 17.1057 6.16854 17.8871 5.38714C18.6685 4.60573 19.7283 4.16675 20.8333 4.16675H29.1667C30.2717 4.16675 31.3315 4.60573 32.1129 5.38714C32.8943 6.16854 33.3333 7.22835 33.3333 8.33341V12.5001M20.8333 22.9167V35.4167M29.1667 22.9167V35.4167" stroke="#FF4646" stroke-width="4" stroke-linecap="round" stroke-linejoin="round"/>
</svg>
