<svg width="62" height="63" viewBox="0 0 62 63" fill="none" xmlns="http://www.w3.org/2000/svg">
<path d="M31.334 25.8916V37.9626H48.1086C47.372 41.8445 45.1615 45.1316 41.8463 47.3417L51.9621 55.1907C57.8559 49.7505 61.2562 41.7598 61.2562 32.2674C61.2562 30.0573 61.0579 27.9319 60.6894 25.8919L31.334 25.8916Z" fill="#4285F4"/>
<path d="M13.866 37.4914L11.5846 39.2378L3.50879 45.5282C8.63751 55.7006 19.1492 62.7279 31.3334 62.7279C39.7489 62.7279 46.8043 59.951 51.9615 55.1908L41.8458 47.3418C39.0689 49.2119 35.5269 50.3454 31.3334 50.3454C23.2295 50.3454 16.3442 44.8767 13.8788 37.5094L13.866 37.4914Z" fill="#34A853"/>
<path d="M3.50876 17.5894C1.38371 21.7829 0.165405 26.515 0.165405 31.5586C0.165405 36.6023 1.38371 41.3344 3.50876 45.5279C3.50876 45.556 13.8797 37.4806 13.8797 37.4806C13.2564 35.6105 12.8879 33.6271 12.8879 31.5583C12.8879 29.4896 13.2564 27.5062 13.8797 25.6361L3.50876 17.5894Z" fill="#FBBC05"/>
<path d="M31.334 12.8007C35.9245 12.8007 40.0047 14.3874 43.2633 17.4477L52.1889 8.52212C46.7768 3.47848 39.7498 0.389709 31.334 0.389709C19.1499 0.389709 8.63751 7.38858 3.50879 17.5894L13.8795 25.6367C16.3445 18.2694 23.2301 12.8007 31.334 12.8007Z" fill="#EA4335"/>
</svg>
