<svg width="19" height="19" viewBox="0 0 19 19" fill="none" xmlns="http://www.w3.org/2000/svg">
<path d="M9.49992 17.4167C9.3152 17.4167 9.15686 17.3639 9.02492 17.2584C8.89297 17.1528 8.79402 17.0143 8.72804 16.8427C8.47735 16.1039 8.16068 15.4112 7.77804 14.7646C7.4086 14.1181 6.88742 13.3594 6.2145 12.4886C5.54159 11.6177 4.99402 10.7865 4.57179 9.99483C4.16277 9.20317 3.95825 8.24657 3.95825 7.12504C3.95825 5.58129 4.49263 4.27504 5.56138 3.20629C6.64332 2.12435 7.95617 1.58337 9.49992 1.58337C11.0437 1.58337 12.3499 2.12435 13.4187 3.20629C14.5006 4.27504 15.0416 5.58129 15.0416 7.12504C15.0416 8.32573 14.8107 9.32851 14.3489 10.1334C13.9003 10.925 13.3791 11.7101 12.7853 12.4886C12.0728 13.4386 11.5319 14.2302 11.1624 14.8636C10.8062 15.4837 10.5093 16.1434 10.2718 16.8427C10.2058 17.0275 10.1003 17.1726 9.95513 17.2782C9.82318 17.3705 9.67145 17.4167 9.49992 17.4167ZM9.49992 14.5865C9.72422 14.1379 9.97492 13.6959 10.252 13.2605C10.5423 12.825 10.9645 12.2445 11.5187 11.5188C12.086 10.7799 12.5478 10.1004 12.9041 9.48025C13.2735 8.84691 13.4583 8.06185 13.4583 7.12504C13.4583 6.0299 13.069 5.09969 12.2905 4.33442C11.5253 3.55594 10.5951 3.16671 9.49992 3.16671C8.40478 3.16671 7.46797 3.55594 6.6895 4.33442C5.92422 5.09969 5.54159 6.0299 5.54159 7.12504C5.54159 8.06185 5.71971 8.84691 6.07596 9.48025C6.44541 10.1004 6.91381 10.7799 7.48117 11.5188C8.03534 12.2445 8.45096 12.825 8.72804 13.2605C9.01832 13.6959 9.27561 14.1379 9.49992 14.5865ZM9.49992 9.10421C10.0541 9.10421 10.5225 8.91289 10.9051 8.53025C11.2878 8.14761 11.4791 7.67921 11.4791 7.12504C11.4791 6.57087 11.2878 6.10247 10.9051 5.71983C10.5225 5.33719 10.0541 5.14587 9.49992 5.14587C8.94575 5.14587 8.47735 5.33719 8.09471 5.71983C7.71207 6.10247 7.52075 6.57087 7.52075 7.12504C7.52075 7.67921 7.71207 8.14761 8.09471 8.53025C8.47735 8.91289 8.94575 9.10421 9.49992 9.10421Z" fill="#1D1B20"/>
</svg>
