<svg width="44" height="44" viewBox="0 0 44 44" fill="none" xmlns="http://www.w3.org/2000/svg">
<path d="M1.83337 1.83337H9.16671L14.08 26.3817C14.2477 27.2258 14.7069 27.984 15.3772 28.5236C16.0475 29.0632 16.8863 29.3499 17.7467 29.3334H35.5667C36.4271 29.3499 37.2659 29.0632 37.9362 28.5236C38.6065 27.984 39.0657 27.2258 39.2334 26.3817L42.1667 11H11M18.3334 38.5C18.3334 39.5126 17.5126 40.3334 16.5 40.3334C15.4875 40.3334 14.6667 39.5126 14.6667 38.5C14.6667 37.4875 15.4875 36.6667 16.5 36.6667C17.5126 36.6667 18.3334 37.4875 18.3334 38.5ZM38.5 38.5C38.5 39.5126 37.6792 40.3334 36.6667 40.3334C35.6542 40.3334 34.8334 39.5126 34.8334 38.5C34.8334 37.4875 35.6542 36.6667 36.6667 36.6667C37.6792 36.6667 38.5 37.4875 38.5 38.5Z" stroke="#F3F3F3" stroke-width="3.66667" stroke-linecap="round" stroke-linejoin="round"/>
</svg>
